<?xml version="1.0" encoding="utf-8"?>
<!-- Generator: Adobe Illustrator 19.0.0, SVG Export Plug-In . SVG Version: 6.00 Build 0)  -->
<svg version="1.1" width="30px" id="Layer_1" xmlns="http://www.w3.org/2000/svg" xmlns:xlink="http://www.w3.org/1999/xlink" x="0px" y="0px"
	 viewBox="0 0 39 57.9" style="enable-background:new 0 0 39 57.9;" xml:space="preserve">
<style type="text/css">
	.st0{fill:url(#XMLID_80_);}
	.st1{fill:url(#XMLID_81_);}
	.st2{fill:url(#XMLID_82_);}
	.st3{fill:url(#XMLID_83_);}
	.st4{fill:#E6E5EE;}
	.st5{fill:url(#XMLID_84_);}
	.st6{fill:url(#XMLID_85_);}
</style>
<g id="XMLID_1123_">
	<linearGradient id="XMLID_80_" gradientUnits="userSpaceOnUse" x1="21.9911" y1="49.4323" x2="39" y2="49.4323">
		<stop  offset="4.810653e-04" style="stop-color:#4E2D8A"/>
		<stop  offset="0.3053" style="stop-color:#502F8B"/>
		<stop  offset="0.5666" style="stop-color:#57348E"/>
		<stop  offset="0.8111" style="stop-color:#643D94"/>
		<stop  offset="1" style="stop-color:#71479C"/>
	</linearGradient>
	<path id="XMLID_1124_" class="st0" d="M39,49.4c0,4.7-3.8,8.5-8.4,8.5c-4.7,0-8.6-3.9-8.6-8.6c0-4.7,3.9-8.4,8.7-8.4
		C35.2,40.9,39,44.8,39,49.4z M31.9,48c0-1.1,0-2,0-2.9c0-0.9-0.3-1.7-1.3-1.7c-1,0-1.5,0.7-1.5,1.8c0,0.9,0,1.8,0,2.8
		c-1.1,0-2,0-3,0c-1,0-1.6,0.5-1.6,1.5c0,1,0.7,1.4,1.7,1.4c0.9,0,1.8,0,2.9,0c0,1.1,0,2,0,2.9c0,0.9,0.4,1.7,1.4,1.7
		c1,0,1.4-0.7,1.4-1.7c0-0.9,0-1.9,0-2.9c1.2,0,2.1,0,2.9,0c0.9,0,1.7-0.4,1.7-1.4c0-1-0.7-1.4-1.6-1.4C33.9,48,33,48,31.9,48z"/>
	<g id="XMLID_1128_">
		<linearGradient id="XMLID_81_" gradientUnits="userSpaceOnUse" x1="12" y1="20.955" x2="15.5498" y2="20.955">
			<stop  offset="4.810653e-04" style="stop-color:#4E2D8A"/>
			<stop  offset="0.3053" style="stop-color:#502F8B"/>
			<stop  offset="0.5666" style="stop-color:#57348E"/>
			<stop  offset="0.8111" style="stop-color:#643D94"/>
			<stop  offset="1" style="stop-color:#71479C"/>
		</linearGradient>
		<path id="XMLID_1129_" class="st1" d="M15.5,19.5v2.9c0,0.8-0.7,1.5-1.5,1.5h-0.5c-0.8,0-1.5-0.7-1.5-1.5v-2.9
			c0-0.8,0.7-1.5,1.5-1.5H14C14.9,18,15.5,18.7,15.5,19.5z"/>
		<linearGradient id="XMLID_82_" gradientUnits="userSpaceOnUse" x1="21.4502" y1="20.955" x2="25" y2="20.955">
			<stop  offset="4.810653e-04" style="stop-color:#4E2D8A"/>
			<stop  offset="0.3053" style="stop-color:#502F8B"/>
			<stop  offset="0.5666" style="stop-color:#57348E"/>
			<stop  offset="0.8111" style="stop-color:#643D94"/>
			<stop  offset="1" style="stop-color:#71479C"/>
		</linearGradient>
		<path id="XMLID_1130_" class="st2" d="M25,19.5v2.9c0,0.8-0.7,1.5-1.5,1.5H23c-0.8,0-1.5-0.7-1.5-1.5v-2.9c0-0.8,0.7-1.5,1.5-1.5
			h0.5C24.3,18,25,18.7,25,19.5z"/>
		<linearGradient id="XMLID_83_" gradientUnits="userSpaceOnUse" x1="0" y1="28" x2="36" y2="28">
			<stop  offset="4.810653e-04" style="stop-color:#4E2D8A"/>
			<stop  offset="0.3053" style="stop-color:#502F8B"/>
			<stop  offset="0.5666" style="stop-color:#57348E"/>
			<stop  offset="0.8111" style="stop-color:#643D94"/>
			<stop  offset="1" style="stop-color:#71479C"/>
		</linearGradient>
		<path id="XMLID_1131_" class="st3" d="M30.7,5.3C27.4,2,22.8-0.1,17.8,0C7.8,0.1,0,8.5,0,18.5l0,35.4C0,55,1,56,2.1,56h18.8
			c0.6,0,1-0.7,0.7-1.2c-0.5-0.7-0.8-1.6-1.1-2.4c-0.1-0.3-0.4-0.6-0.8-0.6H4l0-2.2c0-7.4,5.6-13.8,13-14.3
			c4.3-0.3,8.1,1.3,10.9,4.1l0.1,0.1c0.9-0.2,1.9-0.4,2.8-0.4c1,0,2,0.1,2.9,0.4c1.1,0.4,2.3-0.5,2.3-1.7V18C36,13,34,8.5,30.7,5.3z
			 M29.1,22.5c0,5-5,10-10,10h-2.3c-5,0-10-5-10-10c0-2.9,1.2-5.5,3.1-7.4c1.9-1.9,4.5-3.1,7.4-3.1h10.9c0.5,0,1,0.4,1,1V22.5z"/>
		<path id="XMLID_1134_" class="st4" d="M15.5,19.5v2.9c0,0.8-0.7,1.5-1.5,1.5h-0.5c-0.8,0-1.5-0.7-1.5-1.5v-2.9
			c0-0.8,0.7-1.5,1.5-1.5H14C14.9,18,15.5,18.7,15.5,19.5z"/>
		<path id="XMLID_1135_" class="st4" d="M25,19.5v2.9c0,0.8-0.7,1.5-1.5,1.5H23c-0.8,0-1.5-0.7-1.5-1.5v-2.9c0-0.8,0.7-1.5,1.5-1.5
			h0.5C24.3,18,25,18.7,25,19.5z"/>
		<g id="XMLID_1136_">
			<linearGradient id="XMLID_84_" gradientUnits="userSpaceOnUse" x1="12" y1="20.955" x2="15.5498" y2="20.955">
				<stop  offset="4.810653e-04" style="stop-color:#4E2D8A"/>
				<stop  offset="0.3053" style="stop-color:#502F8B"/>
				<stop  offset="0.5666" style="stop-color:#57348E"/>
				<stop  offset="0.8111" style="stop-color:#643D94"/>
				<stop  offset="1" style="stop-color:#71479C"/>
			</linearGradient>
			<path id="XMLID_1137_" class="st5" d="M15.5,19.5v2.9c0,0.8-0.7,1.5-1.5,1.5h-0.5c-0.8,0-1.5-0.7-1.5-1.5v-2.9
				c0-0.8,0.7-1.5,1.5-1.5H14C14.9,18,15.5,18.7,15.5,19.5z"/>
			<linearGradient id="XMLID_85_" gradientUnits="userSpaceOnUse" x1="21.4502" y1="20.955" x2="25" y2="20.955">
				<stop  offset="4.810653e-04" style="stop-color:#4E2D8A"/>
				<stop  offset="0.3053" style="stop-color:#502F8B"/>
				<stop  offset="0.5666" style="stop-color:#57348E"/>
				<stop  offset="0.8111" style="stop-color:#643D94"/>
				<stop  offset="1" style="stop-color:#71479C"/>
			</linearGradient>
			<path id="XMLID_1138_" class="st6" d="M25,19.5v2.9c0,0.8-0.7,1.5-1.5,1.5H23c-0.8,0-1.5-0.7-1.5-1.5v-2.9c0-0.8,0.7-1.5,1.5-1.5
				h0.5C24.3,18,25,18.7,25,19.5z"/>
		</g>
	</g>
</g>
</svg>
