<?xml version="1.0" encoding="utf-8"?>
<!-- Generator: Adobe Illustrator 19.0.0, SVG Export Plug-In . SVG Version: 6.00 Build 0)  -->
<svg version="1.1" width="40px" id="Layer_1" xmlns="http://www.w3.org/2000/svg" xmlns:xlink="http://www.w3.org/1999/xlink" x="0px" y="0px"
	 viewBox="0 0 43.5 42.6" style="enable-background:new 0 0 43.5 42.6;" xml:space="preserve">
<style type="text/css">
	.st0{fill:url(#XMLID_95_);}
	.st1{fill:url(#XMLID_96_);}
	.st2{fill:url(#XMLID_97_);}
	.st3{fill:url(#XMLID_98_);}
	.st4{fill:url(#XMLID_99_);}
	.st5{fill:url(#XMLID_100_);}
</style>
<g id="XMLID_1139_">
	<linearGradient id="XMLID_95_" gradientUnits="userSpaceOnUse" x1="21.5752" y1="3.953" x2="35.3473" y2="3.953">
		<stop  offset="0" style="stop-color:#F15C27"/>
		<stop  offset="0.2574" style="stop-color:#F15F26"/>
		<stop  offset="0.478" style="stop-color:#F26826"/>
		<stop  offset="0.6851" style="stop-color:#F47625"/>
		<stop  offset="0.8828" style="stop-color:#F68723"/>
		<stop  offset="0.9995" style="stop-color:#F79421"/>
	</linearGradient>
	<path id="XMLID_1140_" class="st0" d="M35.3,8.2H25l-0.3-0.4L23.3,6l-1.7-2.2l4.7-3.7c0.9-0.7,2.3-0.6,3.1,0.4L35.3,8.2z"/>
	<linearGradient id="XMLID_96_" gradientUnits="userSpaceOnUse" x1="26.04" y1="9.8981" x2="37.1499" y2="9.8981">
		<stop  offset="0" style="stop-color:#F15C27"/>
		<stop  offset="0.2574" style="stop-color:#F15F26"/>
		<stop  offset="0.478" style="stop-color:#F26826"/>
		<stop  offset="0.6851" style="stop-color:#F47625"/>
		<stop  offset="0.8828" style="stop-color:#F68723"/>
		<stop  offset="0.9995" style="stop-color:#F79421"/>
	</linearGradient>
	<polygon id="XMLID_1141_" class="st1" points="37.1,9.9 26,9.9 26,9.9 37.1,9.9 	"/>
	<linearGradient id="XMLID_97_" gradientUnits="userSpaceOnUse" x1="7.6402" y1="5.0147" x2="22.7228" y2="5.0147">
		<stop  offset="0" style="stop-color:#F15C27"/>
		<stop  offset="0.2574" style="stop-color:#F15F26"/>
		<stop  offset="0.478" style="stop-color:#F26826"/>
		<stop  offset="0.6851" style="stop-color:#F47625"/>
		<stop  offset="0.8828" style="stop-color:#F68723"/>
		<stop  offset="0.9995" style="stop-color:#F79421"/>
	</linearGradient>
	<path id="XMLID_1142_" class="st2" d="M22.7,8.2H7.6l0.5-0.4L10.5,6l4.8-3.8c1-0.7,2.3-0.6,3.1,0.4L21,6l1.4,1.8L22.7,8.2z"/>
	<linearGradient id="XMLID_98_" gradientUnits="userSpaceOnUse" x1="4.23" y1="9.8981" x2="24.6899" y2="9.8981">
		<stop  offset="0" style="stop-color:#F15C27"/>
		<stop  offset="0.2574" style="stop-color:#F15F26"/>
		<stop  offset="0.478" style="stop-color:#F26826"/>
		<stop  offset="0.6851" style="stop-color:#F47625"/>
		<stop  offset="0.8828" style="stop-color:#F68723"/>
		<stop  offset="0.9995" style="stop-color:#F79421"/>
	</linearGradient>
	<polygon id="XMLID_1143_" class="st3" points="24.7,9.9 4.2,9.9 4.2,9.9 24.7,9.9 	"/>
	<linearGradient id="XMLID_99_" gradientUnits="userSpaceOnUse" x1="5.410402e-08" y1="22.328" x2="41.5098" y2="22.328">
		<stop  offset="0" style="stop-color:#F15C27"/>
		<stop  offset="0.2574" style="stop-color:#F15F26"/>
		<stop  offset="0.478" style="stop-color:#F26826"/>
		<stop  offset="0.6851" style="stop-color:#F47625"/>
		<stop  offset="0.8828" style="stop-color:#F68723"/>
		<stop  offset="0.9995" style="stop-color:#F79421"/>
	</linearGradient>
	<path id="XMLID_1145_" class="st4" d="M41.5,13v10.9c0,0.7-0.7,1.1-1.3,0.8c-1.5-0.8-3.2-1.3-4.9-1.3c-6.1,0.1-10.9,4.7-11,10.6
		c0,1.9,0.5,3.8,1.4,5.4c0.3,0.6-0.1,1.3-0.8,1.3H3.1c-1.7,0-3.1-1.4-3.1-3.1V7.1C0,5.4,1.4,4,3.1,4H10L8.4,5.3
		C8.3,5.4,8.2,5.4,8.1,5.5c0,0,0,0,0,0c-0.3,0.2-0.6,0.3-1,0.3H4.4c-1.7,0-3,2.1-1.3,3.9c0.1,0.2,0.3,0.2,0.5,0.2h34.7
		C40.1,9.9,41.5,11.3,41.5,13z"/>
</g>
<linearGradient id="XMLID_100_" gradientUnits="userSpaceOnUse" x1="280.6979" y1="2132.4592" x2="297.6944" y2="2132.4592" gradientTransform="matrix(0.7405 0.6721 -0.6721 0.7405 1254.0033 -1739.3433)">
	<stop  offset="0" style="stop-color:#F15C27"/>
	<stop  offset="0.2574" style="stop-color:#F15F26"/>
	<stop  offset="0.478" style="stop-color:#F26826"/>
	<stop  offset="0.6851" style="stop-color:#F47625"/>
	<stop  offset="0.8828" style="stop-color:#F68723"/>
	<stop  offset="0.9995" style="stop-color:#F79421"/>
</linearGradient>
<path id="XMLID_1344_" class="st5" d="M35.2,25.6c-4.9,0.1-8.7,3.8-8.7,8.4c-0.1,4.7,3.9,8.6,8.6,8.6c4.7,0,8.4-3.8,8.4-8.5
	C43.5,29.4,39.7,25.5,35.2,25.6z M38.2,36.1l-2.6,2.2c-0.1,0.1-0.3,0.2-0.5,0.2c-0.1,0-0.3,0-0.4,0c-0.2,0-0.3-0.1-0.5-0.2l-2.6-2.2
	c-0.2-0.2-0.4-0.5-0.4-0.8c0-0.2,0.1-0.5,0.2-0.7c0.4-0.4,1-0.5,1.5-0.1l0.9,0.8v-4.6c0-0.6,0.5-1,1-1c0.6,0,1,0.5,1,1v4.6l0.9-0.8
	c0.4-0.4,1.1-0.3,1.5,0.1c0.2,0.2,0.2,0.4,0.2,0.7C38.6,35.6,38.5,35.9,38.2,36.1z"/>
</svg>
