<?xml version="1.0" encoding="utf-8"?>
<!-- Generator: Adobe Illustrator 19.0.0, SVG Export Plug-In . SVG Version: 6.00 Build 0)  -->
<svg version="1.1" width="30px" id="Layer_1" xmlns="http://www.w3.org/2000/svg" xmlns:xlink="http://www.w3.org/1999/xlink" x="0px" y="0px"
	 viewBox="0 0 37.8 56.1" style="enable-background:new 0 0 37.8 56.1;" xml:space="preserve">
<style type="text/css">
	.st0{fill:url(#XMLID_119_);}
	.st1{fill:url(#XMLID_120_);}
</style>
<g id="XMLID_1112_">
	<linearGradient id="XMLID_119_" gradientUnits="userSpaceOnUse" x1="5.410402e-08" y1="26.6" x2="35.1602" y2="26.6">
		<stop  offset="0" style="stop-color:#D41C5C"/>
		<stop  offset="0.2861" style="stop-color:#D01C5C"/>
		<stop  offset="0.5313" style="stop-color:#C61D5C"/>
		<stop  offset="0.7615" style="stop-color:#B51E5E"/>
		<stop  offset="0.9813" style="stop-color:#A01F60"/>
		<stop  offset="1" style="stop-color:#9D1F60"/>
	</linearGradient>
	<path id="XMLID_1113_" class="st0" d="M33.2,0.8C33,0.3,32.5,0,32,0h-1.1c-0.5,0-1,0.3-1.2,0.8c-0.5,1-1.6,1.8-2.8,1.8
		c-1.2,0-2.3-0.7-2.8-1.8C23.8,0.3,23.4,0,22.8,0h-1.1c-0.5,0-1,0.3-1.2,0.8c-0.5,1-1.6,1.8-2.8,1.8c-1.2,0-2.3-0.7-2.8-1.8
		C14.6,0.3,14.1,0,13.6,0h-1.1c-0.5,0-1,0.3-1.2,0.8c-0.5,1-1.6,1.8-2.8,1.8c-1.2,0-2.3-0.7-2.8-1.8C5.4,0.3,4.9,0,4.4,0H3.3
		C2.8,0,2.3,0.3,2.1,0.8C1.7,1.6,0.9,2.3,0,2.5v49.7c0,0.5,0.4,1,1,1h18.2c0.4,0,0.7-0.4,0.5-0.8c-0.8-1.5-1.2-3.1-1.1-4.9
		c0-5.9,4.9-10.6,11-10.7c1.7,0,3.3,0.4,4.8,1.2c0.4,0.2,0.8-0.1,0.8-0.5v-35C34.3,2.2,33.6,1.6,33.2,0.8z M17.4,35h-11
		C5.6,35,5,34.4,5,33.6c0-0.8,0.6-1.4,1.4-1.4h11c0.8,0,1.4,0.6,1.4,1.4C18.8,34.4,18.1,35,17.4,35z M29.4,27.2h-23
		c-0.8,0-1.4-0.6-1.4-1.4c0-0.8,0.6-1.4,1.4-1.4h23c0.8,0,1.4,0.6,1.4,1.4C30.7,26.6,30.1,27.2,29.4,27.2z M29.4,20.7h-23
		c-0.8,0-1.4-0.6-1.4-1.4C5,18.6,5.6,18,6.4,18h23c0.8,0,1.4,0.6,1.4,1.4C30.7,20.1,30.1,20.7,29.4,20.7z M29.4,12.2h-23
		c-0.8,0-1.4-0.6-1.4-1.4c0-0.8,0.6-1.4,1.4-1.4h23c0.8,0,1.4,0.6,1.4,1.4C30.7,11.6,30.1,12.2,29.4,12.2z"/>
</g>
<linearGradient id="XMLID_120_" gradientUnits="userSpaceOnUse" x1="20.7598" y1="47.5898" x2="37.77" y2="47.5898">
	<stop  offset="0" style="stop-color:#D41C5C"/>
	<stop  offset="0.2861" style="stop-color:#D01C5C"/>
	<stop  offset="0.5313" style="stop-color:#C61D5C"/>
	<stop  offset="0.7615" style="stop-color:#B51E5E"/>
	<stop  offset="0.9813" style="stop-color:#A01F60"/>
	<stop  offset="1" style="stop-color:#9D1F60"/>
</linearGradient>
<path id="XMLID_1120_" class="st1" d="M29.5,39.1c-4.9,0.1-8.7,3.8-8.7,8.4c-0.1,4.7,3.9,8.6,8.6,8.6c4.7,0,8.4-3.8,8.4-8.5
	C37.8,42.9,34,39,29.5,39.1z M33.6,46.3L29.4,51c0,0,0,0-0.1,0.1l-0.2,0.1c0,0-0.1,0-0.1,0.1l-0.2,0c-0.2,0.1-0.4,0-0.6,0
	c-0.1,0-0.2-0.1-0.3-0.2c0,0,0,0-0.1-0.1l-2-2.2c-0.4-0.4-0.3-1.1,0.1-1.5c0.4-0.4,1.1-0.3,1.5,0.1l1.3,1.4l3.5-3.8
	c0.4-0.4,1-0.4,1.5-0.1c0.2,0.2,0.3,0.5,0.3,0.8C33.9,45.9,33.8,46.1,33.6,46.3z"/>
</svg>
